<svg xmlns="http://www.w3.org/2000/svg" viewBox="0 0 64 64" id="female"><path d="M52.86,47.44,51.7,42.79A9,9,0,0,0,43,36V19.36A11.24,11.24,0,0,0,32.21,8,11,11,0,0,0,21,19V36h-.14a.91.91,0,0,1,.14.49c0,3.58,4.49,6.5,10,6.5a1,1,0,0,1,0,2c-6.62,0-12-3.81-12-8.5a.66.66,0,0,1,.05-.28,9,9,0,0,0-6.75,6.57l-1.16,4.65A1.25,1.25,0,0,0,11,48c0,2.76,9.4,8,21,8s21-5.24,21-8A1.25,1.25,0,0,0,52.86,47.44ZM32,34a7,7,0,0,1-7-7V21a6.94,6.94,0,0,1,.37-2.25h0a.45.45,0,0,1,.13-.11.31.31,0,0,1,.11-.09c.11-.1.24-.19.36-.28l.27-.18.23-.14a2.31,2.31,0,0,1,.35-.18l.24-.12a2.41,2.41,0,0,1,.33-.15l.2-.07a3,3,0,0,1,.48-.16c.19-.06.39-.1.58-.14a6,6,0,0,1,.63-.09A5.53,5.53,0,0,1,30,17h4a5.53,5.53,0,0,1,.71,0,6,6,0,0,1,.63.09,5.45,5.45,0,0,1,.58.14,3.38,3.38,0,0,1,.48.16l.2.07a2.41,2.41,0,0,1,.33.15,1.34,1.34,0,0,1,.24.12,2.31,2.31,0,0,1,.35.18l.21.13a4.56,4.56,0,0,1,.39.27l.07,0a4.78,4.78,0,0,1,.42.34c0-.13-.08-.25-.13-.37A6.78,6.78,0,0,1,39,21v6A7,7,0,0,1,32,34Z"></path></svg>