<?xml version="1.0" encoding="iso-8859-1"?>
<!-- Uploaded to: SVG Repo, www.svgrepo.com, Generator: SVG Repo Mixer Tools -->
<svg height="800px" width="800px" version="1.1" id="Layer_1" xmlns="http://www.w3.org/2000/svg" xmlns:xlink="http://www.w3.org/1999/xlink" 
	 viewBox="0 0 512 512" xml:space="preserve">
<path style="fill:#FFE9CC;" d="M95.256,93.669v300.452C95.256,459.12,148.136,512,213.135,512h85.73
	c64.999,0,117.879-52.88,117.879-117.879V93.669H95.256z"/>
<path style="fill:#FFDAA9;" d="M256,93.669V512h42.865c64.999,0,117.879-52.88,117.879-117.879V93.669H256z"/>
<g>
	<path style="fill:#A2001D;" d="M329.451,247.11c-29.147,0-58.742-10.254-84.275-29.706c0,0,23.129-116.195,82.266-116.195
		s79.152,119.818,79.152,119.818c-1.968,1.605-20.07,15.874-48.99,22.79C348.371,246.024,338.933,247.11,329.451,247.11z"/>
	<path style="fill:#A2001D;" d="M226.233,410.791c0,16.44,13.327,29.767,29.767,29.767s29.767-13.327,29.767-29.767H226.233z"/>
</g>
<g>
	<circle style="fill:#91DC5A;" cx="178.605" cy="333.395" r="41.674"/>
	<circle style="fill:#91DC5A;" cx="333.395" cy="333.395" r="41.674"/>
</g>
<g>
	<path style="fill:#64C37D;" d="M178.605,291.721c23.016,0,41.674,18.658,41.674,41.674s-18.658,41.674-41.674,41.674"/>
	<path style="fill:#64C37D;" d="M333.395,375.07c23.016,0,41.674-18.658,41.674-41.674s-18.658-41.674-41.674-41.674"/>
</g>
<path style="fill:#FF5023;" d="M181.104,246.384c-8.511,0-17.139-0.773-25.801-2.377c-0.939-0.169-25.231-4.685-47.928-21.192
	c0,0-13.183-57.393,65.278-109.7c71.442-47.628,150.623-13.693,150.623-13.693c0,15.142-2.734,29.427-3.109,31.314
	C307.518,198.725,247.923,246.384,181.104,246.384z"/>
<path style="fill:#00D7DF;" d="M125.475,47.628h-6.249c-24.27,19.274-44.488,43.691-58.759,71.122
	c-16.189,31.12-24.746,66.229-24.746,101.53c0,58.117,22.633,111.037,59.535,150.442v-57.729
	c0-54.771,21.467-106.402,60.447-145.382c38.98-38.981,90.611-60.448,145.383-60.448h0.391C278.299,89.44,282.954,51.631,256,41.674
	C224.227,29.939,160.254,47.628,125.475,47.628z"/>
<path style="fill:#CCF7F9;" d="M256,0c-46.946,0-91.756,14.569-129.587,42.133c-2.437,1.775-4.824,3.62-7.186,5.495h6.249
	c77.498,0,150.559,30.381,205.724,85.544c55.164,55.165,85.544,128.226,85.544,205.725v31.824
	c36.902-39.404,59.535-92.326,59.535-150.442C476.279,98.817,377.462,0,256,0z"/>
</svg>